<?xml version="1.0" standalone="no"?>
<!DOCTYPE svg PUBLIC "-//W3C//DTD SVG 20010904//EN"
 "http://www.w3.org/TR/2001/REC-SVG-20010904/DTD/svg10.dtd">
<svg version="1.0" xmlns="http://www.w3.org/2000/svg"
 width="286.000000pt" height="286.000000pt" viewBox="0 0 286.000000 286.000000"
 preserveAspectRatio="xMidYMid meet">
<metadata>
Created by potrace 1.11, written by Peter Selinger 2001-2013
</metadata>
<g transform="translate(0.000000,286.000000) scale(0.100000,-0.100000)"
fill="#000000" stroke="none">
<path d="M1315 2854 c-105 -12 -226 -37 -324 -69 -585 -189 -981 -736 -981
-1355 0 -695 493 -1281 1183 -1407 123 -22 361 -22 484 0 690 126 1183 712
1183 1407 0 692 -498 1286 -1177 1405 -91 16 -297 26 -368 19z m-578 -1251
c73 -208 138 -403 146 -433 l14 -55 8 45 c11 66 286 820 299 819 6 0 38 -10
71 -23 39 -14 59 -27 57 -37 -1 -7 -84 -220 -184 -471 l-181 -458 -81 0 -81 0
-170 451 c-93 247 -171 453 -172 457 -3 6 123 81 137 82 3 0 65 -170 137 -377z
m882 346 c10 -17 24 -50 31 -74 l12 -42 56 57 c72 73 122 90 271 90 139 0 207
-19 270 -76 96 -86 141 -213 141 -395 0 -200 -43 -328 -141 -426 -72 -72 -130
-93 -258 -93 -131 0 -191 19 -253 82 l-48 47 0 -294 0 -295 -81 0 -82 0 4 637
4 638 -27 52 c-16 29 -28 54 -28 57 0 8 84 65 98 66 7 0 21 -14 31 -31z"/>
<path d="M1875 1846 c-64 -29 -128 -101 -155 -172 -17 -46 -20 -78 -20 -208 0
-150 0 -154 31 -214 52 -104 131 -152 251 -152 203 0 317 164 306 440 -5 115
-27 182 -83 249 -68 80 -223 107 -330 57z"/>
</g>
</svg>
